<?xml version="1.0" encoding="UTF-8" standalone="no"?>
<!-- Created with Inkscape (http://www.inkscape.org/) -->

<svg
   xmlns:dc="http://purl.org/dc/elements/1.1/"
   xmlns:cc="http://creativecommons.org/ns#"
   xmlns:rdf="http://www.w3.org/1999/02/22-rdf-syntax-ns#"
   xmlns:svg="http://www.w3.org/2000/svg"
   xmlns="http://www.w3.org/2000/svg"
   xmlns:sodipodi="http://sodipodi.sourceforge.net/DTD/sodipodi-0.dtd"
   xmlns:inkscape="http://www.inkscape.org/namespaces/inkscape"
   width="194mm"
   height="194mm"
   viewBox="0 0 194 194"
   version="1.1"
   id="svg584"
   sodipodi:docname="testLogo3.svg"
   inkscape:version="0.92.4 (5da689c313, 2019-01-14)">
  <defs
     id="defs578" />
  <sodipodi:namedview
     id="base"
     pagecolor="#ffffff"
     bordercolor="#666666"
     borderopacity="1.0"
     inkscape:pageopacity="0.0"
     inkscape:pageshadow="2"
     inkscape:zoom="0.49497475"
     inkscape:cx="781.80761"
     inkscape:cy="138.87562"
     inkscape:document-units="mm"
     inkscape:current-layer="layer1"
     showgrid="false"
     inkscape:window-width="1920"
     inkscape:window-height="1001"
     inkscape:window-x="-9"
     inkscape:window-y="-9"
     inkscape:window-maximized="1" />
  <metadata
     id="metadata581">
    <rdf:RDF>
      <cc:Work
         rdf:about="">
        <dc:format>image/svg+xml</dc:format>
        <dc:type
           rdf:resource="http://purl.org/dc/dcmitype/StillImage" />
        <dc:title></dc:title>
        <dc:title></dc:title>
      </cc:Work>
    </rdf:RDF>
  </metadata>
  <g
     inkscape:label="Calque 1"
     inkscape:groupmode="layer"
     id="layer1"
     transform="translate(0,-103)">
    <circle
       style="fill:#1a0028;stroke-width:0.26458332"
       id="path565"
       cx="97.571304"
       cy="135"
       r="19.84375" />
    <path
       style="fill:#0288d1;stroke-width:0.37797621"
       d="M 4.4215396,296.36181 C 3.708713,295.99645 2.7969244,295.24904 2.3953427,294.70091 1.6757332,293.71869 1.6713184,292.35513 2.0894905,200.23409 2.4904517,111.90448 2.5506254,106.7 3.1836047,105.60271 c 1.1896223,-2.06224 2.7389709,-2.56415 7.0696973,-2.29024 6.765473,0.42792 15.133795,3.09215 27.976672,8.90697 10.591054,4.79528 14.845549,7.47134 20.354319,12.80283 9.781302,9.46652 17.548376,21.75932 22.699927,35.92674 2.543148,6.99399 3.791969,9.17869 6.929927,12.1234 1.955937,1.83547 2.828867,2.36062 5.040675,3.03244 6.834278,2.07585 13.100648,-0.35743 17.178828,-6.67066 1.48975,-2.30621 2.0709,-3.63782 3.97092,-9.09869 2.54254,-7.30756 5.93036,-14.00441 10.68429,-21.12012 3.28629,-4.91893 5.92042,-8.13565 10.58852,-12.93037 5.89668,-6.05662 10.83469,-9.28452 21.33756,-13.94801 14.72371,-6.53764 22.00559,-8.80834 28.68598,-8.94509 3.3885,-0.0694 4.29656,0.0333 5.1353,0.58075 2.24767,1.46699 2.06484,-5.469562 2.53089,96.02126 0.46422,101.09113 0.57674,94.42471 -1.62114,96.04758 -1.06982,0.78993 -1.07042,0.78994 -35.71875,0.66578 -31.83125,-0.11407 -34.69062,-0.17554 -35.16178,-0.75595 -0.97415,-1.20003 -0.0168,-18.53454 1.67353,-30.30292 2.6421,-18.39452 7.65639,-34.69036 15.4657,-50.26168 5.12903,-10.227 13.48092,-24.90212 16.53177,-29.04802 2.29062,-3.1128 15.10995,-19.60944 21.05175,-27.0906 5.94082,-7.47992 7.04207,-9.6275 6.72574,-13.11609 -0.45257,-4.99098 -4.40797,-8.55958 -9.53086,-8.59884 -2.54128,-0.0195 -4.4534,0.55777 -5.91137,1.78458 -0.66559,0.56004 -5.72954,6.29402 -11.25323,12.74217 -15.75586,18.39278 -21.01721,24.17964 -25.43853,27.97938 -6.88144,5.914 -15.67941,11.31673 -21.13232,12.97711 -5.85216,1.78196 -14.903314,1.97462 -20.931223,0.44556 -5.115211,-1.29755 -13.006771,-5.46011 -19.151381,-10.10178 -1.594122,-1.2042 -5.962941,-5.1276 -9.708488,-8.71865 -3.765603,-3.61028 -7.406976,-6.77858 -8.145259,-7.08705 -1.619654,-0.67674 -5.056923,-0.72379 -7.174232,-0.0982 -2.076164,0.61342 -5.207376,3.74463 -5.820796,5.82079 -0.688539,2.3304 -0.543365,4.62984 0.438703,6.94871 0.484232,1.14338 3.041501,5.65075 5.682813,10.01637 2.641317,4.36563 6.72924,11.76451 9.084273,16.44196 13.222419,26.26172 18.239067,43.0058 20.836966,69.54762 0.705176,7.20455 0.919694,19.43018 0.350258,19.96166 -0.224226,0.20928 -14.292289,0.4504 -34.584819,0.59275 -32.1650285,0.22563 -34.2842087,0.20031 -35.5028954,-0.42434 z"
       id="path658"
       inkscape:connector-curvature="0" />
  </g>
</svg>
